<!-- Icon -->
<svg xmlns="http://www.w3.org/2000/svg" width="55" height="32">
  <path d="M 24.522 24.86 L 46.051 24.86 C 46.34 24.86 46.628 24.906 46.917 24.951 C 47.13 24.981 47.221 25.102 47.145 25.358 C 46.598 27.396 46.051 29.449 45.535 31.487 C 45.459 31.774 45.307 31.894 45.048 31.94 C 44.79 31.985 44.517 32.03 44.258 32.03 L 0.851 32.03 C -0.046 32.015 -0.137 31.909 0.091 31.079 C 0.577 29.208 1.079 27.336 1.55 25.449 C 1.626 25.132 1.793 24.966 2.112 24.936 C 2.416 24.906 2.72 24.86 3.008 24.86 Z M 41.615 28.377 C 41.417 27.879 41.265 27.457 41.098 27.034 C 40.84 26.37 40.84 26.385 40.141 26.4 C 39.943 26.4 39.852 26.46 39.807 26.657 C 39.731 27.049 39.624 27.442 39.533 27.834 C 39.336 28.709 39.138 29.585 38.925 30.506 C 39.138 30.506 39.305 30.491 39.457 30.506 C 39.791 30.551 39.959 30.445 40.004 30.098 C 40.095 29.555 40.247 29.011 40.369 28.483 C 40.642 28.981 40.87 29.464 41.007 29.977 C 41.128 30.415 41.356 30.581 41.812 30.521 C 42.025 30.491 42.116 30.445 42.162 30.234 C 42.344 29.389 42.557 28.543 42.754 27.698 C 42.845 27.291 42.936 26.868 43.043 26.415 C 42.785 26.415 42.587 26.43 42.39 26.415 C 42.146 26.4 42.025 26.46 41.979 26.717 C 41.919 27.23 41.767 27.758 41.615 28.377 Z M 26.801 28.483 C 26.831 28.483 26.862 28.468 26.892 28.468 C 27.12 29.072 27.363 29.675 27.591 30.279 C 27.743 30.687 28.093 30.445 28.351 30.475 C 28.427 30.491 28.564 30.309 28.594 30.189 C 28.822 29.253 29.05 28.317 29.262 27.366 C 29.338 27.049 29.399 26.732 29.475 26.385 C 29.232 26.385 29.05 26.4 28.852 26.385 C 28.564 26.355 28.457 26.46 28.412 26.747 C 28.32 27.26 28.169 27.774 28.047 28.317 C 28.001 28.257 27.986 28.242 27.986 28.211 C 27.834 27.819 27.682 27.411 27.53 27.019 C 27.272 26.355 27.272 26.37 26.573 26.385 C 26.376 26.385 26.285 26.445 26.239 26.642 C 26.057 27.487 25.844 28.332 25.662 29.177 C 25.57 29.6 25.479 30.023 25.373 30.491 C 25.616 30.491 25.798 30.475 25.981 30.491 C 26.254 30.521 26.376 30.43 26.436 30.143 C 26.512 29.585 26.664 29.042 26.801 28.483 Z M 23.595 26.4 C 23.276 26.4 23.003 26.385 22.729 26.415 C 22.653 26.415 22.532 26.521 22.517 26.611 C 22.213 27.894 21.909 29.162 21.605 30.475 L 22.653 30.475 C 22.76 30.023 22.851 29.585 22.972 29.147 C 23.003 29.042 23.094 28.906 23.17 28.891 C 23.474 28.86 23.778 28.875 24.127 28.875 C 24.006 29.449 23.884 29.947 23.778 30.491 C 24.081 30.491 24.325 30.475 24.552 30.491 C 24.75 30.506 24.841 30.445 24.887 30.234 C 24.948 29.857 25.054 29.494 25.145 29.132 C 25.358 28.226 25.555 27.336 25.768 26.415 L 24.72 26.415 C 24.613 26.838 24.522 27.275 24.416 27.683 C 24.385 27.774 24.279 27.909 24.203 27.925 C 23.914 27.955 23.61 27.94 23.276 27.94 C 23.367 27.411 23.474 26.928 23.595 26.4 Z M 17.351 27.985 C 17.366 27.336 17.366 27.336 17.943 27.336 L 18.977 27.336 C 19.052 27.019 19.113 26.732 19.174 26.43 L 16.591 26.43 C 16.272 27.789 15.968 29.132 15.649 30.475 L 18.247 30.475 C 18.308 30.189 18.369 29.917 18.445 29.585 L 16.971 29.585 C 17.017 28.875 17.017 28.875 17.64 28.875 C 18.262 28.875 18.262 28.875 18.399 28.272 C 18.414 28.196 18.43 28.106 18.445 27.985 Z M 38.318 26.385 C 38.151 26.385 38.014 26.4 37.892 26.385 C 37.528 26.325 37.315 26.46 37.133 26.808 C 36.555 27.894 35.948 28.966 35.34 30.038 C 35.264 30.174 35.188 30.309 35.081 30.506 C 35.325 30.506 35.492 30.491 35.674 30.506 C 35.978 30.551 36.206 30.475 36.327 30.158 C 36.358 30.083 36.494 30.008 36.586 30.008 C 36.89 29.992 37.178 30.008 37.482 30.008 C 37.512 30.204 37.543 30.355 37.573 30.491 L 38.637 30.491 C 38.515 29.102 38.424 27.758 38.318 26.385 Z M 11.623 26.491 C 11.046 26.325 10.088 26.294 9.602 26.445 C 8.994 26.626 8.599 27.275 8.615 28.06 C 8.615 28.498 8.812 28.664 9.557 28.86 L 9.739 28.906 C 9.921 28.966 10.164 28.936 10.134 29.253 C 10.088 29.54 9.936 29.675 9.648 29.66 C 9.238 29.645 8.812 29.6 8.372 29.57 C 8.265 29.842 8.159 30.113 8.007 30.521 C 8.66 30.521 9.207 30.536 9.754 30.521 C 10.878 30.491 11.243 29.721 11.243 28.694 C 11.243 28.528 11.03 28.287 10.863 28.196 C 10.605 28.045 10.286 28.015 10.012 27.909 C 9.906 27.864 9.739 27.683 9.769 27.623 C 9.815 27.487 9.952 27.336 10.073 27.275 C 10.225 27.215 10.423 27.26 10.605 27.26 C 11.395 27.306 11.395 27.306 11.653 26.521 C 11.638 26.521 11.623 26.506 11.623 26.491 Z M 34.215 26.43 C 33.608 26.43 33.046 26.4 32.499 26.445 C 32.058 26.475 31.724 26.762 31.511 27.14 C 31.086 27.925 30.888 28.785 30.888 29.675 C 30.888 30.158 31.146 30.445 31.648 30.521 C 31.936 30.566 32.225 30.566 32.514 30.551 C 33.334 30.506 33.273 30.702 33.289 29.691 C 33.289 29.675 33.273 29.675 33.243 29.63 C 33 29.66 32.742 29.691 32.483 29.706 C 32.073 29.721 31.921 29.585 31.997 29.192 C 32.073 28.694 32.21 28.181 32.347 27.698 C 32.423 27.442 32.635 27.306 32.924 27.306 L 33.881 27.306 C 33.957 27.034 34.079 26.762 34.215 26.43 Z M 21.225 29.6 C 20.967 29.63 20.724 29.66 20.496 29.675 C 20.04 29.706 19.873 29.57 19.934 29.117 C 20.01 28.649 20.131 28.181 20.253 27.728 C 20.344 27.411 20.572 27.26 20.906 27.275 C 21.195 27.291 21.483 27.275 21.818 27.275 C 21.909 27.034 22.03 26.762 22.167 26.415 C 21.575 26.415 21.028 26.385 20.481 26.43 C 19.979 26.475 19.599 26.777 19.417 27.23 C 19.204 27.774 19.007 28.332 18.901 28.906 C 18.673 30.234 19.022 30.596 20.39 30.521 C 21.331 30.475 21.195 30.626 21.225 29.6 Z M 13.932 27.321 C 13.689 28.392 13.446 29.419 13.203 30.491 C 13.477 30.491 13.704 30.475 13.932 30.491 C 14.191 30.506 14.282 30.415 14.327 30.174 C 14.464 29.479 14.631 28.8 14.798 28.121 C 14.981 27.351 14.981 27.351 15.786 27.321 C 15.892 27.321 16.059 27.23 16.09 27.155 C 16.181 26.928 16.211 26.687 16.257 26.415 L 13.249 26.415 C 13.173 26.415 13.036 26.506 13.021 26.581 C 12.945 26.808 12.899 27.064 12.838 27.336 C 13.218 27.321 13.552 27.321 13.932 27.321 Z M 8.782 26.415 L 5.576 26.415 C 5.515 26.702 5.439 26.989 5.363 27.336 L 6.427 27.336 C 6.184 28.423 5.941 29.449 5.698 30.491 L 6.746 30.491 C 6.989 29.434 7.232 28.392 7.49 27.321 L 8.569 27.321 C 8.645 27.004 8.706 26.732 8.782 26.415 Z M 5.211 26.4 C 4.892 26.4 4.619 26.385 4.345 26.415 C 4.269 26.415 4.148 26.521 4.133 26.596 C 3.829 27.879 3.525 29.177 3.221 30.506 C 3.494 30.506 3.738 30.491 3.965 30.506 C 4.193 30.521 4.3 30.43 4.345 30.219 C 4.436 29.796 4.543 29.358 4.634 28.936 C 4.816 28.106 5.014 27.275 5.211 26.4 Z M 29.08 30.491 C 29.399 30.491 29.673 30.506 29.931 30.475 C 30.022 30.475 30.144 30.385 30.174 30.309 C 30.478 29.026 30.782 27.728 31.086 26.415 L 30.037 26.415 C 29.718 27.758 29.399 29.102 29.08 30.491 Z M 33.684 30.491 C 33.972 30.491 34.2 30.475 34.428 30.491 C 34.686 30.521 34.778 30.4 34.823 30.158 C 34.93 29.645 35.066 29.132 35.173 28.619 C 35.34 27.894 35.507 27.155 35.674 26.385 C 35.355 26.385 35.066 26.37 34.793 26.4 C 34.717 26.4 34.595 26.521 34.58 26.596 C 34.291 27.879 34.003 29.162 33.684 30.491 Z M 15.467 13.811 C 16.302 14.475 16.971 15.23 17.214 16.302 C 17.579 17.962 16.698 19.743 15.057 20.679 C 13.796 21.389 12.413 21.6 11 21.615 C 8.463 21.645 5.91 21.615 3.373 21.615 C 3.343 21.615 3.297 21.6 3.221 21.6 C 4.239 18.189 5.257 14.808 6.275 11.411 L 10.088 11.411 C 9.359 13.842 8.645 16.242 7.901 18.717 C 9.222 18.672 10.483 18.702 11.729 18.581 C 12.778 18.475 13.218 17.585 12.838 16.589 C 12.58 15.955 12.109 15.472 11.593 15.049 C 11.137 14.687 10.651 14.37 10.164 14.008 C 10.818 13.645 11.486 13.298 12.124 12.906 C 12.656 12.589 13.142 12.211 13.644 11.849 C 13.735 11.789 13.811 11.683 13.872 11.608 C 14.115 11.321 14.297 10.989 14.13 10.611 C 13.963 10.249 13.583 10.219 13.249 10.219 C 10.529 10.204 7.809 10.204 5.09 10.204 L 4.588 10.204 C 4.816 9.525 5.029 8.875 5.242 8.226 C 5.546 7.275 5.546 7.275 6.548 7.275 C 9.481 7.275 12.428 7.26 15.36 7.291 C 15.968 7.291 16.606 7.381 17.199 7.532 C 18.612 7.894 19.144 8.891 18.779 10.294 C 18.536 11.2 17.989 11.925 17.275 12.498 C 16.682 12.951 16.075 13.358 15.467 13.811 Z" fill="hsl(0, 0%, 100%)"></path>
  <path d="M 45.519 11.004 C 45.291 11.743 45.064 12.468 44.82 13.177 C 44.79 13.268 44.608 13.374 44.501 13.374 C 43.529 13.389 42.557 13.374 41.584 13.389 C 41.341 13.389 41.098 13.404 40.87 13.464 C 40.414 13.57 40.308 13.842 40.597 14.204 C 41.144 14.883 41.706 15.547 42.253 16.211 C 42.557 16.589 42.86 16.951 43.134 17.343 C 43.681 18.143 43.681 18.958 43.164 19.774 C 42.481 20.875 41.417 21.419 40.171 21.525 C 38.986 21.63 37.771 21.6 36.57 21.615 C 35.401 21.63 34.246 21.615 33.015 21.615 C 33.228 21.147 33.425 20.725 33.638 20.302 C 33.805 19.94 33.912 19.442 34.2 19.26 C 34.489 19.079 34.99 19.2 35.385 19.2 L 38.348 19.2 C 38.576 19.2 38.804 19.17 39.032 19.14 C 39.579 19.049 39.685 18.762 39.336 18.325 C 38.682 17.509 38.029 16.694 37.36 15.879 C 37.254 15.743 37.148 15.608 37.041 15.457 C 36.221 14.294 36.358 13.102 37.421 12.121 C 38.227 11.366 39.229 11.019 40.308 10.989 C 41.994 10.943 43.696 10.974 45.398 10.974 C 45.428 10.974 45.474 10.989 45.519 11.004 Z M 35.507 10.974 C 34.945 11.774 34.443 12.513 33.912 13.253 C 33.851 13.343 33.684 13.389 33.562 13.389 C 32.635 13.404 31.709 13.389 30.797 13.404 C 29.186 13.419 28.169 14.279 27.88 15.849 C 27.667 17.011 28.336 18.128 29.581 18.702 C 30.356 19.064 31.162 19.185 31.997 19.215 C 32.18 19.23 32.362 19.215 32.605 19.215 C 32.21 20 31.845 20.755 31.45 21.494 C 31.42 21.555 31.314 21.615 31.253 21.615 C 29.749 21.66 28.244 21.63 26.847 20.936 C 24.507 19.774 23.58 17.253 24.583 14.732 C 25.403 12.664 26.999 11.517 29.141 11.17 C 30.25 10.989 31.405 11.034 32.544 11.004 C 33.517 10.958 34.474 10.974 35.507 10.974 Z" fill="hsl(0, 0%, 100%)"></path>
  <path d="M 47.57 21.6 L 44.425 21.6 C 44.623 20.951 44.82 20.317 45.018 19.683 C 45.914 16.83 46.826 13.977 47.722 11.125 C 47.798 10.898 47.874 10.808 48.133 10.808 C 49.059 10.823 49.986 10.808 50.974 10.808 C 49.834 14.445 48.71 18.023 47.57 21.6 Z M 24.294 10.898 C 23.185 14.491 22.091 18.053 20.997 21.6 L 17.852 21.6 C 18.08 20.86 18.293 20.151 18.506 19.442 C 19.341 16.725 20.177 14.023 21.012 11.306 C 21.104 11.004 21.225 10.898 21.559 10.898 C 22.441 10.928 23.337 10.898 24.294 10.898 Z" fill="hsl(0, 0%, 100%)"></path>
  <path d="M 24.613 5.057 C 25.145 4.619 25.646 4.151 26.209 3.743 C 28.67 2.008 31.374 0.8 34.352 0.287 C 38.743 -0.483 42.86 0.287 46.644 2.657 C 47.631 3.275 48.482 4.091 49.394 4.83 C 49.5 4.921 49.561 5.042 49.652 5.147 L 49.606 5.192 C 49.014 4.755 48.452 4.302 47.844 3.909 C 46.006 2.747 43.97 2.083 41.843 1.721 C 40.171 1.434 38.485 1.298 36.798 1.358 C 33.137 1.479 29.612 2.189 26.391 4.015 C 25.783 4.362 25.221 4.755 24.644 5.132 C 24.644 5.087 24.628 5.072 24.613 5.057 Z" fill="hsl(0, 0%, 100%)"></path>
  <path d="M 25.191 7.774 C 25.191 8.77 24.385 9.555 23.337 9.57 C 22.304 9.585 21.453 8.8 21.438 7.819 C 21.423 6.808 22.258 6.008 23.307 6.008 C 24.37 5.992 25.191 6.777 25.191 7.774 Z M 50.244 9.464 C 49.181 9.464 48.33 8.664 48.345 7.683 C 48.36 6.717 49.196 5.917 50.244 5.917 C 51.262 5.917 52.128 6.732 52.128 7.698 C 52.128 8.664 51.278 9.464 50.244 9.464 Z" fill="hsl(0, 0%, 100%)"></path>
  <path d="M 52.964 6.566 C 52.994 6.37 53.01 6.189 53.04 6.008 C 53.086 5.675 53.298 5.494 53.617 5.464 C 54.818 5.343 55.015 5.63 55 6.657 C 55 7.608 54.225 8.075 53.374 7.623 C 53.222 7.547 53.101 7.366 53.04 7.2 C 52.979 7.004 52.994 6.777 52.964 6.566 Z M 53.207 6.566 C 53.207 7.155 53.283 7.336 53.541 7.442 C 54.256 7.743 54.772 7.411 54.772 6.642 L 54.772 6.491 C 54.757 5.766 54.544 5.57 53.83 5.63 C 53.314 5.691 53.207 5.842 53.207 6.566 Z" fill="hsl(0, 0%, 100%)"></path>
  <path d="M 24.401 5.238 C 24.477 5.177 24.537 5.117 24.613 5.057 C 24.628 5.072 24.644 5.087 24.644 5.102 C 24.568 5.147 24.492 5.208 24.416 5.253 C 24.431 5.253 24.401 5.238 24.401 5.238 Z M 49.728 5.223 C 49.743 5.253 49.773 5.283 49.789 5.313 L 49.773 5.328 C 49.743 5.298 49.713 5.283 49.698 5.253 Z M 24.34 5.313 L 24.264 5.389" fill="hsl(0, 0%, 100%)"></path>
  <path d="M 49.789 5.298 L 49.834 5.343 C 49.819 5.328 49.789 5.328 49.773 5.313 C 49.773 5.328 49.789 5.298 49.789 5.298 Z M 24.264 5.389 C 24.249 5.404 24.249 5.419 24.233 5.449 C 24.249 5.434 24.249 5.404 24.264 5.389 Z M 24.34 5.313 C 24.37 5.283 24.385 5.253 24.416 5.238 C 24.416 5.238 24.446 5.253 24.446 5.268 C 24.401 5.283 24.37 5.298 24.34 5.313 Z M 49.652 5.132 C 49.682 5.162 49.698 5.192 49.728 5.208 L 49.698 5.238 L 49.622 5.162 C 49.637 5.162 49.652 5.147 49.652 5.132 Z" fill="hsl(0, 0%, 100%)"></path>
  <path d="M 53.557 5.917 L 53.557 7.019 C 53.557 7.079 53.633 7.155 53.678 7.215 C 53.724 7.155 53.769 7.094 53.8 7.034 C 53.83 6.958 53.83 6.853 53.845 6.777 C 54.164 6.777 54.104 7.291 54.468 7.2 C 54.407 7.004 54.271 6.823 54.316 6.687 C 54.529 5.977 54.453 5.872 53.724 5.887 C 53.693 5.902 53.663 5.902 53.557 5.917 Z" fill="hsl(0, 0%, 100%)"></path>
  <path d="M 37.436 29.132 L 36.829 29.132 C 37.011 28.77 37.193 28.438 37.36 28.106 C 37.391 28.106 37.406 28.121 37.436 28.121 Z" fill="hsl(0, 0%, 100%)"></path>
  <path d="M 53.557 5.917 C 53.648 5.902 53.693 5.902 53.724 5.902 C 54.453 5.887 54.514 5.992 54.316 6.702 C 54.271 6.838 54.407 7.019 54.468 7.215 C 54.104 7.306 54.164 6.792 53.845 6.792 C 53.83 6.868 53.83 6.974 53.8 7.049 C 53.769 7.109 53.724 7.17 53.678 7.23 C 53.633 7.17 53.572 7.094 53.557 7.034 Z M 53.83 6.098 L 53.83 6.566 C 53.86 6.596 53.891 6.611 53.921 6.642 C 54.012 6.551 54.164 6.475 54.18 6.37 C 54.24 6.098 54.058 6.053 53.83 6.098 Z" fill="hsl(0, 0%, 100%)"></path>
</svg>