<!-- Graphic -->
<svg xmlns="http://www.w3.org/2000/svg" width="184" height="24">
  <path d="M 156.715 19.05 C 155.413 19.05 154.153 19.093 152.913 19.029 C 151.422 18.964 150.393 17.85 150.288 16.093 C 150.183 14.636 150.204 13.179 150.183 11.7 C 150.162 10.564 150.183 9.429 150.183 8.229 L 148.103 8.229 C 148.082 7.971 148.061 7.779 148.061 7.564 C 148.04 7.564 148.019 7.564 147.998 7.543 C 147.326 9.514 146.633 11.507 145.961 13.479 C 145.205 15.707 144.427 17.914 143.671 20.143 C 143.545 20.529 143.377 20.914 143.23 21.279 C 142.495 23.079 141.193 24.043 139.26 24 C 138.336 23.979 137.412 23.936 136.467 23.914 L 136.467 20.25 C 137.097 20.293 137.706 20.336 138.315 20.357 C 138.777 20.379 139.092 20.164 139.302 19.714 C 139.701 18.857 139.848 18.043 139.47 17.057 C 138.021 13.221 136.635 9.343 135.248 5.486 C 135.185 5.336 135.143 5.186 135.059 4.971 L 138.231 4.971 C 139.533 4.971 139.533 4.971 139.932 6.257 C 140.584 8.336 141.256 10.436 141.907 12.514 C 141.97 12.686 142.033 12.857 142.138 13.179 C 142.579 11.764 142.978 10.5 143.377 9.257 C 143.776 7.993 144.196 6.707 144.574 5.443 C 144.679 5.079 144.847 4.993 145.205 4.993 C 146.864 5.014 148.523 4.993 150.246 4.993 L 150.246 1.693 L 154.3 1.693 L 154.3 4.993 L 156.778 4.993 L 156.778 8.207 L 154.321 8.207 L 154.321 14.657 C 154.321 15.45 154.489 15.6 155.245 15.6 L 156.799 15.6 C 156.715 16.736 156.715 17.807 156.715 19.05 Z" fill="hsl(0, 0%, 100%)"></path>
  <path d="M 69.021 18.943 L 64.925 18.943 L 64.925 5.014 L 68.916 5.014 C 68.937 5.271 68.937 5.529 68.958 5.807 C 71.332 3.943 74.503 4.071 75.932 6.407 C 76.646 5.571 77.486 4.971 78.536 4.693 C 81.75 3.836 84.354 5.936 84.375 9.407 C 84.396 12.364 84.375 15.343 84.375 18.3 L 84.375 18.921 L 80.258 18.921 L 80.258 10.693 C 80.258 10.329 80.237 9.986 80.174 9.621 C 80.006 8.421 79.25 7.929 78.116 8.293 C 77.297 8.55 76.751 9.3 76.709 10.286 C 76.667 11.336 76.688 12.386 76.688 13.436 L 76.688 18.9 L 72.592 18.9 L 72.592 10.286 C 72.592 10.114 72.592 9.921 72.571 9.75 C 72.487 9.086 72.34 8.464 71.605 8.25 C 70.89 8.036 69.987 8.314 69.525 8.914 C 69.042 9.536 68.979 10.286 68.979 11.036 L 68.979 18.257 C 69.021 18.514 69.021 18.707 69.021 18.943 Z" fill="hsl(0, 0%, 100%)"></path>
  <path d="M 4.369 6.814 L 10.88 6.814 L 10.88 0.021 L 15.165 0.021 L 15.165 19.007 L 10.901 19.007 L 10.901 11.036 L 4.39 11.036 L 4.39 19.007 L 0 19.007 L 0 0.021 L 4.369 0.021 Z" fill="hsl(0, 0%, 100%)"></path>
  <path d="M 89.837 9.6 L 86.035 9.6 C 85.909 7.264 87.232 5.379 89.395 4.8 C 91.286 4.307 93.176 4.35 95.046 4.907 C 97.02 5.507 97.839 6.664 97.839 8.764 L 97.839 15.086 C 97.839 15.729 97.797 16.371 97.86 17.014 C 97.923 17.636 98.091 18.257 98.238 18.964 L 96.201 18.964 C 95.76 18.964 95.319 18.921 94.899 18.964 C 94.374 19.029 94.1 18.836 94.058 18.3 C 94.058 18.214 93.995 18.15 93.953 18.043 C 92.42 19.179 90.719 19.479 88.912 19.157 C 87.379 18.879 86.203 18.021 85.72 16.479 C 85.216 14.957 85.279 13.436 86.35 12.129 C 87.127 11.186 88.24 10.8 89.374 10.586 C 90.572 10.35 91.79 10.136 92.987 9.921 C 93.47 9.836 93.911 9.707 93.974 9.086 C 94.037 8.421 93.785 7.929 93.197 7.714 C 92.399 7.436 91.58 7.436 90.782 7.736 C 90.32 7.907 90.047 8.271 89.963 8.764 C 89.9 9.064 89.879 9.321 89.837 9.6 Z M 93.848 12.621 C 93.491 12.707 93.155 12.771 92.798 12.857 C 92.084 13.007 91.37 13.136 90.656 13.307 C 89.9 13.5 89.479 14.143 89.542 14.957 C 89.605 15.686 90.131 16.157 90.929 16.2 C 91.223 16.221 91.517 16.2 91.811 16.179 C 92.903 16.029 93.701 15.407 93.827 14.529 C 93.911 13.886 93.848 13.264 93.848 12.621 Z" fill="hsl(0, 0%, 100%)"></path>
  <path d="M 25.647 14.25 L 29.448 14.25 C 29.007 17.164 27.012 19.071 24.134 19.371 C 22.391 19.564 20.732 19.393 19.261 18.364 C 17.665 17.271 16.804 15.664 16.51 13.757 C 16.132 11.4 16.468 9.15 17.938 7.221 C 19.576 5.036 21.845 4.329 24.428 4.843 C 26.97 5.357 28.587 7.007 29.238 9.514 C 29.553 10.714 29.574 12 29.742 13.307 L 20.521 13.307 C 20.269 14.443 21.194 15.921 22.307 16.243 C 23.861 16.693 25.016 16.029 25.647 14.25 Z M 25.563 10.414 C 25.584 9.043 24.365 7.8 23.063 7.821 C 21.74 7.843 20.521 9.129 20.605 10.414 Z M 55.053 13.307 L 45.853 13.307 C 45.559 14.914 47.113 16.521 48.71 16.35 C 49.802 16.243 50.516 15.664 50.873 14.614 C 50.915 14.464 51.083 14.25 51.209 14.25 C 52.406 14.229 53.583 14.229 54.801 14.229 C 54.507 16.221 53.625 17.743 51.881 18.621 C 49.928 19.607 47.869 19.8 45.832 18.986 C 43.248 17.957 42.051 15.814 41.778 13.114 C 41.589 11.314 41.883 9.6 42.765 7.993 C 44.173 5.464 46.798 4.264 49.739 4.8 C 52.28 5.25 54.339 7.414 54.78 10.179 C 54.948 11.186 54.948 12.236 55.053 13.307 Z M 50.936 10.414 C 50.81 8.914 49.718 7.779 48.416 7.821 C 46.924 7.864 45.958 9.15 45.937 10.414 Z" fill="hsl(0, 0%, 100%)"></path>
  <path d="M 163.668 4.479 C 167.7 4.479 170.431 7.286 170.494 11.464 C 170.515 12.707 170.389 13.929 169.948 15.086 C 168.751 18.236 165.936 19.479 162.911 19.221 C 159.215 18.9 157.009 16.179 156.904 12.343 C 156.862 11.186 157.03 9.964 157.366 8.871 C 158.206 6.043 160.58 4.479 163.668 4.479 Z M 160.811 11.829 C 161.021 12.707 161.147 13.607 161.462 14.421 C 161.84 15.386 162.638 15.836 163.668 15.836 C 164.697 15.836 165.495 15.386 165.894 14.443 C 166.629 12.729 166.629 10.971 165.873 9.257 C 165.453 8.314 164.655 7.886 163.626 7.907 C 162.617 7.929 161.819 8.357 161.462 9.3 C 161.168 10.093 161.042 10.971 160.811 11.829 Z" fill="hsl(0, 0%, 100%)"></path>
  <path d="M 126.09 18.943 L 122.016 18.943 L 122.016 10.264 C 122.016 9.171 121.658 8.571 120.923 8.357 C 119.915 8.079 118.907 8.4 118.487 9.321 C 118.193 9.986 118.025 10.757 118.004 11.464 C 117.941 13.757 117.983 16.029 117.983 18.321 L 117.983 18.943 L 113.908 18.943 L 113.908 5.057 L 117.878 5.057 L 117.878 5.957 C 118.025 5.871 118.109 5.829 118.172 5.764 C 119.579 4.5 121.217 4.307 122.94 4.757 C 124.809 5.25 126.027 6.879 126.048 9.021 C 126.132 12.321 126.09 15.6 126.09 18.943 Z" fill="hsl(0, 0%, 100%)"></path>
  <path d="M 184.063 18.943 L 179.988 18.943 L 179.988 10.307 C 179.988 9.15 179.631 8.55 178.812 8.357 C 177.741 8.1 176.753 8.486 176.354 9.471 C 176.102 10.071 175.976 10.779 175.976 11.443 C 175.934 13.736 175.955 16.05 175.955 18.343 L 175.955 18.943 L 171.901 18.943 L 171.901 5.057 L 175.85 5.057 L 175.85 6.043 C 176.627 5.314 177.426 4.821 178.371 4.65 C 181.858 4.093 184 6.129 184.042 9.364 C 184.084 12.407 184.042 15.471 184.042 18.514 C 184.063 18.643 184.063 18.771 184.063 18.943 Z" fill="hsl(0, 0%, 100%)"></path>
  <path d="M 139.197 0.021 L 139.197 4.05 L 133.967 4.05 L 133.967 19.029 L 129.577 19.029 L 129.577 4.093 L 124.431 4.093 L 124.431 0.021 Z" fill="hsl(0, 0%, 100%)"></path>
  <path d="M 103.721 18.943 L 99.646 18.943 L 99.646 5.057 L 103.595 5.057 C 103.616 5.336 103.616 5.636 103.637 6.021 C 104.393 5.314 105.17 4.821 106.136 4.671 C 109.749 4.093 111.786 6.3 111.807 9.386 C 111.828 12.429 111.807 15.45 111.807 18.493 L 111.807 18.964 L 107.753 18.964 L 107.753 10.414 C 107.753 9.15 107.375 8.55 106.43 8.357 C 105.338 8.143 104.372 8.636 103.994 9.707 C 103.805 10.264 103.7 10.886 103.7 11.486 C 103.7 13.929 103.721 16.414 103.721 18.943 Z M 30.772 0 L 34.91 0 L 34.91 19.007 L 30.772 19.007 Z M 36.653 0 L 40.686 0 L 40.686 19.029 L 36.653 19.029 Z M 56.082 5.036 L 60.031 5.036 L 60.031 6.386 C 61.186 5.014 62.51 4.393 64.211 4.757 L 64.211 8.786 C 63.707 8.743 63.182 8.614 62.657 8.657 C 61.459 8.743 60.703 9.471 60.388 10.629 C 60.241 11.143 60.178 11.721 60.157 12.257 C 60.136 14.464 60.157 16.671 60.157 18.921 L 56.082 18.921 Z" fill="hsl(0, 0%, 100%)"></path>
</svg>