<svg xmlns="http://www.w3.org/2000/svg" width="24" height="24"><path d="M 22.675 0 L 1.325 0 C 0.593 0 0 0.593 0 1.325 L 0 22.676 C 0 23.407 0.593 24 1.325 24 L 12.82 24 L 12.82 14.706 L 9.692 14.706 L 9.692 11.084 L 12.82 11.084 L 12.82 8.413 C 12.82 5.313 14.713 3.625 17.479 3.625 C 18.804 3.625 19.942 3.724 20.274 3.768 L 20.274 7.008 L 18.356 7.009 C 16.852 7.009 16.561 7.724 16.561 8.772 L 16.561 11.085 L 20.148 11.085 L 19.681 14.707 L 16.561 14.707 L 16.561 24 L 22.677 24 C 23.407 24 24 23.407 24 22.675 L 24 1.325 C 24 0.593 23.407 0 22.675 0 Z" fill="rgb(255,255,255)"></path></svg>